<svg width="77" height="31" viewBox="0 0 77 31" fill="none" xmlns="http://www.w3.org/2000/svg">
<path d="M19.8182 10.3125C19.6193 9.62121 19.34 9.01042 18.9801 8.48011C18.6203 7.94034 18.1799 7.4858 17.6591 7.11648C17.1477 6.73769 16.5606 6.44886 15.8977 6.25C15.2443 6.05114 14.5199 5.9517 13.7244 5.9517C12.2377 5.9517 10.9309 6.32102 9.80398 7.05966C8.68655 7.79829 7.81534 8.87311 7.19034 10.2841C6.56534 11.6856 6.25284 13.3996 6.25284 15.4261C6.25284 17.4527 6.56061 19.1761 7.17614 20.5966C7.79167 22.017 8.66288 23.1013 9.78977 23.8494C10.9167 24.5881 12.2472 24.9574 13.7812 24.9574C15.1733 24.9574 16.3617 24.7112 17.3466 24.2188C18.3409 23.7169 19.0985 23.0114 19.6193 22.1023C20.1496 21.1932 20.4148 20.1184 20.4148 18.8778L21.6648 19.0625H14.1648V14.4318H26.3381V18.0966C26.3381 20.6534 25.7983 22.8504 24.7188 24.6875C23.6392 26.5152 22.1525 27.9261 20.2585 28.9205C18.3646 29.9053 16.196 30.3977 13.7528 30.3977C11.0256 30.3977 8.62974 29.7964 6.56534 28.5938C4.50095 27.3816 2.8911 25.6629 1.7358 23.4375C0.589962 21.2027 0.0170455 18.5511 0.0170455 15.483C0.0170455 13.125 0.357955 11.0227 1.03977 9.17614C1.73106 7.32008 2.69697 5.74811 3.9375 4.46023C5.17803 3.17235 6.62216 2.19223 8.26989 1.51989C9.91761 0.847537 11.7027 0.511363 13.625 0.511363C15.2727 0.511363 16.8068 0.75284 18.2273 1.2358C19.6477 1.70928 20.9072 2.38163 22.0057 3.25284C23.1136 4.12405 24.018 5.16098 24.7188 6.36364C25.4195 7.55682 25.8693 8.87311 26.0682 10.3125H19.8182ZM30.9581 0.90909H38.5433L46.5547 20.4545H46.8956L54.907 0.90909H62.4922V30H56.5263V11.0653H56.2848L48.7564 29.858H44.6939L37.1655 10.9943H36.924V30H30.9581V0.90909Z" fill="black"/>
<path d="M19.8182 10.3125C19.6193 9.62121 19.34 9.01042 18.9801 8.48011C18.6203 7.94034 18.1799 7.4858 17.6591 7.11648C17.1477 6.73769 16.5606 6.44886 15.8977 6.25C15.2443 6.05114 14.5199 5.9517 13.7244 5.9517C12.2377 5.9517 10.9309 6.32102 9.80398 7.05966C8.68655 7.79829 7.81534 8.87311 7.19034 10.2841C6.56534 11.6856 6.25284 13.3996 6.25284 15.4261C6.25284 17.4527 6.56061 19.1761 7.17614 20.5966C7.79167 22.017 8.66288 23.1013 9.78977 23.8494C10.9167 24.5881 12.2472 24.9574 13.7812 24.9574C15.1733 24.9574 16.3617 24.7112 17.3466 24.2188C18.3409 23.7169 19.0985 23.0114 19.6193 22.1023C20.1496 21.1932 20.4148 20.1184 20.4148 18.8778L21.6648 19.0625H14.1648V14.4318H26.3381V18.0966C26.3381 20.6534 25.7983 22.8504 24.7188 24.6875C23.6392 26.5152 22.1525 27.9261 20.2585 28.9205C18.3646 29.9053 16.196 30.3977 13.7528 30.3977C11.0256 30.3977 8.62974 29.7964 6.56534 28.5938C4.50095 27.3816 2.8911 25.6629 1.7358 23.4375C0.589962 21.2027 0.0170455 18.5511 0.0170455 15.483C0.0170455 13.125 0.357955 11.0227 1.03977 9.17614C1.73106 7.32008 2.69697 5.74811 3.9375 4.46023C5.17803 3.17235 6.62216 2.19223 8.26989 1.51989C9.91761 0.847537 11.7027 0.511363 13.625 0.511363C15.2727 0.511363 16.8068 0.75284 18.2273 1.2358C19.6477 1.70928 20.9072 2.38163 22.0057 3.25284C23.1136 4.12405 24.018 5.16098 24.7188 6.36364C25.4195 7.55682 25.8693 8.87311 26.0682 10.3125H19.8182ZM30.9581 0.90909H38.5433L46.5547 20.4545H46.8956L54.907 0.90909H62.4922V30H56.5263V11.0653H56.2848L48.7564 29.858H44.6939L37.1655 10.9943H36.924V30H30.9581V0.90909Z" fill="black" fill-opacity="0.2"/>
<path d="M19.8182 10.3125C19.6193 9.62121 19.34 9.01042 18.9801 8.48011C18.6203 7.94034 18.1799 7.4858 17.6591 7.11648C17.1477 6.73769 16.5606 6.44886 15.8977 6.25C15.2443 6.05114 14.5199 5.9517 13.7244 5.9517C12.2377 5.9517 10.9309 6.32102 9.80398 7.05966C8.68655 7.79829 7.81534 8.87311 7.19034 10.2841C6.56534 11.6856 6.25284 13.3996 6.25284 15.4261C6.25284 17.4527 6.56061 19.1761 7.17614 20.5966C7.79167 22.017 8.66288 23.1013 9.78977 23.8494C10.9167 24.5881 12.2472 24.9574 13.7812 24.9574C15.1733 24.9574 16.3617 24.7112 17.3466 24.2188C18.3409 23.7169 19.0985 23.0114 19.6193 22.1023C20.1496 21.1932 20.4148 20.1184 20.4148 18.8778L21.6648 19.0625H14.1648V14.4318H26.3381V18.0966C26.3381 20.6534 25.7983 22.8504 24.7188 24.6875C23.6392 26.5152 22.1525 27.9261 20.2585 28.9205C18.3646 29.9053 16.196 30.3977 13.7528 30.3977C11.0256 30.3977 8.62974 29.7964 6.56534 28.5938C4.50095 27.3816 2.8911 25.6629 1.7358 23.4375C0.589962 21.2027 0.0170455 18.5511 0.0170455 15.483C0.0170455 13.125 0.357955 11.0227 1.03977 9.17614C1.73106 7.32008 2.69697 5.74811 3.9375 4.46023C5.17803 3.17235 6.62216 2.19223 8.26989 1.51989C9.91761 0.847537 11.7027 0.511363 13.625 0.511363C15.2727 0.511363 16.8068 0.75284 18.2273 1.2358C19.6477 1.70928 20.9072 2.38163 22.0057 3.25284C23.1136 4.12405 24.018 5.16098 24.7188 6.36364C25.4195 7.55682 25.8693 8.87311 26.0682 10.3125H19.8182ZM30.9581 0.90909H38.5433L46.5547 20.4545H46.8956L54.907 0.90909H62.4922V30H56.5263V11.0653H56.2848L48.7564 29.858H44.6939L37.1655 10.9943H36.924V30H30.9581V0.90909Z" fill="black" fill-opacity="0.2"/>
<path d="M72.4709 30.4616C71.299 30.4616 70.2929 30.0473 69.4524 29.2188C68.6238 28.3783 68.2095 27.3722 68.2095 26.2003C68.2095 25.0402 68.6238 24.0459 69.4524 23.2173C70.2929 22.3887 71.299 21.9744 72.4709 21.9744C73.6072 21.9744 74.6016 22.3887 75.4538 23.2173C76.3061 24.0459 76.7322 25.0402 76.7322 26.2003C76.7322 26.9815 76.531 27.6977 76.1286 28.3487C75.7379 28.9879 75.223 29.5028 74.5838 29.8935C73.9446 30.2723 73.2403 30.4616 72.4709 30.4616Z" fill="#42FF00" fill-opacity="0.97"/>
<path d="M72.4709 30.4616C71.299 30.4616 70.2929 30.0473 69.4524 29.2188C68.6238 28.3783 68.2095 27.3722 68.2095 26.2003C68.2095 25.0402 68.6238 24.0459 69.4524 23.2173C70.2929 22.3887 71.299 21.9744 72.4709 21.9744C73.6072 21.9744 74.6016 22.3887 75.4538 23.2173C76.3061 24.0459 76.7322 25.0402 76.7322 26.2003C76.7322 26.9815 76.531 27.6977 76.1286 28.3487C75.7379 28.9879 75.223 29.5028 74.5838 29.8935C73.9446 30.2723 73.2403 30.4616 72.4709 30.4616Z" fill="black" fill-opacity="0.2"/>
<path d="M72.4709 30.4616C71.299 30.4616 70.2929 30.0473 69.4524 29.2188C68.6238 28.3783 68.2095 27.3722 68.2095 26.2003C68.2095 25.0402 68.6238 24.0459 69.4524 23.2173C70.2929 22.3887 71.299 21.9744 72.4709 21.9744C73.6072 21.9744 74.6016 22.3887 75.4538 23.2173C76.3061 24.0459 76.7322 25.0402 76.7322 26.2003C76.7322 26.9815 76.531 27.6977 76.1286 28.3487C75.7379 28.9879 75.223 29.5028 74.5838 29.8935C73.9446 30.2723 73.2403 30.4616 72.4709 30.4616Z" fill="black" fill-opacity="0.2"/>
</svg>
