<?xml version="1.0"?>
<svg width="14" height="16" xmlns="http://www.w3.org/2000/svg" xmlns:svg="http://www.w3.org/2000/svg">
 <g class="layer">
  <title>Layer 1</title>
  <path d="m13.99,11.99l0,1l-13.99,0l0,-1l0.73,-0.58c0.77,-0.77 0.81,-2.55 1.19,-4.42c0.77,-3.76 4.08,-4.99 4.08,-4.99c0,-0.55 0.45,-1 1,-1c0.54,0 1,0.45 1,1c0,0 3.38,1.23 4.15,4.99c0.38,1.88 0.42,3.66 1.19,4.42l0.66,0.58l-0.01,0zm-6.99,4c1.11,0 1.99,-0.89 1.99,-2l-3.99,0c0,1.11 0.89,2 2,2z" fill="#5418e0" fill-rule="evenodd" id="svg_1"/>
 </g>
</svg>